<svg width="24" height="24" viewBox="0 0 24 24" fill="none" xmlns="http://www.w3.org/2000/svg">
<path d="M7.801 10.46C7.96 9.91 8.446 9.5 9.047 9.5C9.775 9.5 10.366 10.09 10.366 10.819C10.366 11.471 9.837 12 9.185 12C9.837 12 10.366 12.529 10.366 13.181C10.366 13.909 9.776 14.5 9.047 14.5C8.446 14.5 7.96 14.09 7.801 13.54" stroke="#323232" stroke-width="1.5" stroke-linecap="round" stroke-linejoin="round"/>
<path fill-rule="evenodd" clip-rule="evenodd" d="M14.275 14.5H12.866V9.5H14.275C15.338 9.5 16.2 10.362 16.2 11.425V12.576C16.199 13.638 15.338 14.5 14.275 14.5V14.5Z" stroke="#323232" stroke-width="1.5" stroke-linecap="round" stroke-linejoin="round"/>
<path d="M10.115 5.54401L8.638 4.06601C11.776 2.73801 15.539 3.34701 18.096 5.90501C21.204 9.01301 21.436 13.9 18.805 17.281" stroke="#323232" stroke-width="1.5" stroke-linecap="round" stroke-linejoin="round"/>
<path d="M5.195 6.71899C2.565 10.101 2.796 14.988 5.904 18.095C8.461 20.652 12.224 21.262 15.362 19.934L13.884 18.456" stroke="#323232" stroke-width="1.5" stroke-linecap="round" stroke-linejoin="round"/>
</svg>
