<svg width="24" height="24" viewBox="0 0 24 24" fill="none" xmlns="http://www.w3.org/2000/svg">
<path d="M7.801 10.46C7.96 9.91 8.446 9.5 9.047 9.5C9.775 9.5 10.366 10.09 10.366 10.819C10.366 11.471 9.837 12 9.185 12C9.837 12 10.366 12.529 10.366 13.181C10.366 13.909 9.776 14.5 9.047 14.5C8.446 14.5 7.96 14.09 7.801 13.54" stroke="#323232" stroke-width="1.5" stroke-linecap="round" stroke-linejoin="round"/>
<path fill-rule="evenodd" clip-rule="evenodd" d="M14.275 14.5H12.866V9.5H14.275C15.338 9.5 16.2 10.362 16.2 11.425V12.576C16.199 13.638 15.338 14.5 14.275 14.5V14.5Z" stroke="#323232" stroke-width="1.5" stroke-linecap="round" stroke-linejoin="round"/>
<path fill-rule="evenodd" clip-rule="evenodd" d="M3 14.381V9.61899C3 8.01699 3.852 6.53599 5.236 5.72999L9.736 3.11099C11.135 2.29699 12.864 2.29699 14.263 3.11099L18.763 5.72999C20.148 6.53599 21 8.01699 21 9.61899V14.381C21 15.983 20.148 17.464 18.764 18.27L14.264 20.889C12.865 21.703 11.136 21.703 9.737 20.889L5.237 18.27C3.852 17.464 3 15.983 3 14.381Z" stroke="#323232" stroke-width="1.5" stroke-linecap="round" stroke-linejoin="round"/>
</svg>
