<svg width="24" height="24" viewBox="0 0 24 24" fill="none" xmlns="http://www.w3.org/2000/svg">
<path d="M16.498 9.614C14.014 10.439 9.98601 10.439 7.50101 9.614" stroke="#323232" stroke-width="1.5" stroke-linecap="round" stroke-linejoin="round"/>
<path d="M10.6 13.9H13.4" stroke="#323232" stroke-width="1.5" stroke-linecap="round" stroke-linejoin="round"/>
<path d="M13.333 10.186V10.233C13.333 13.617 13.333 14.97 14 17" stroke="#323232" stroke-width="1.5" stroke-linecap="round" stroke-linejoin="round"/>
<path d="M10.667 10.186V10.233C10.667 13.617 10.667 14.97 10 17" stroke="#323232" stroke-width="1.5" stroke-linecap="round" stroke-linejoin="round"/>
<path d="M12.336 6.914C12.521 7.099 12.521 7.4 12.336 7.586C12.151 7.772 11.85 7.771 11.664 7.586C11.478 7.401 11.479 7.1 11.664 6.914C11.849 6.728 12.15 6.729 12.336 6.914" stroke="#323232" stroke-width="1.5" stroke-linecap="round" stroke-linejoin="round"/>
<path fill-rule="evenodd" clip-rule="evenodd" d="M17 21H7C4.791 21 3 19.209 3 17V7C3 4.791 4.791 3 7 3H17C19.209 3 21 4.791 21 7V17C21 19.209 19.209 21 17 21Z" stroke="#323232" stroke-width="1.5" stroke-linecap="round" stroke-linejoin="round"/>
</svg>
