<svg width="24" height="24" viewBox="0 0 24 24" fill="none" xmlns="http://www.w3.org/2000/svg">
<path d="M5.121 6.203C3.799 7.769 3 9.79 3 12C3 14.207 3.797 16.226 5.116 17.792" stroke="#323232" stroke-width="1.5" stroke-linecap="round" stroke-linejoin="round"/>
<path d="M7.141 8.48999C6.426 9.47799 6 10.688 6 12C6 13.309 6.424 14.517 7.136 15.503" stroke="#323232" stroke-width="1.5" stroke-linecap="round" stroke-linejoin="round"/>
<path fill-rule="evenodd" clip-rule="evenodd" d="M7.55001 19.615L11.376 15.282C11.708 14.906 12.294 14.906 12.626 15.282L16.452 19.615C16.926 20.153 16.543 21 15.826 21H8.17401C7.45701 21 7.07401 20.153 7.55001 19.615Z" stroke="#323232" stroke-width="1.5" stroke-linecap="round" stroke-linejoin="round"/>
<path fill-rule="evenodd" clip-rule="evenodd" d="M16.45 4.385L12.624 8.718C12.292 9.094 11.706 9.094 11.374 8.718L7.548 4.385C7.074 3.847 7.457 3 8.174 3H15.826C16.543 3 16.926 3.847 16.45 4.385V4.385Z" stroke="#323232" stroke-width="1.5" stroke-linecap="round" stroke-linejoin="round"/>
<path d="M18.884 6.20801C20.203 7.77401 21 9.79301 21 12C21 14.21 20.201 16.231 18.879 17.797" stroke="#323232" stroke-width="1.5" stroke-linecap="round" stroke-linejoin="round"/>
<path d="M16.864 8.49701C17.576 9.48301 18 10.691 18 12C18 13.312 17.574 14.522 16.859 15.51" stroke="#323232" stroke-width="1.5" stroke-linecap="round" stroke-linejoin="round"/>
</svg>
