<svg width="24" height="24" viewBox="0 0 24 24" fill="none" xmlns="http://www.w3.org/2000/svg">
<path d="M10.421 14.897C9.549 14.025 9.549 12.611 10.421 11.739C11.293 10.867 12.707 10.867 13.579 11.739C14.451 12.611 14.451 14.025 13.579 14.897" stroke="#323232" stroke-width="1.5" stroke-linecap="round" stroke-linejoin="round"/>
<path d="M8.111 17.207C5.963 15.059 5.963 11.577 8.111 9.42899C10.259 7.28099 13.741 7.28099 15.889 9.42899C18.037 11.577 18.037 15.059 15.889 17.207" stroke="#323232" stroke-width="1.5" stroke-linecap="round" stroke-linejoin="round"/>
<path d="M5.636 19.682C2.121 16.167 2.121 10.469 5.636 6.954C9.151 3.439 14.849 3.439 18.364 6.954C21.879 10.469 21.879 16.167 18.364 19.682" stroke="#323232" stroke-width="1.5" stroke-linecap="round" stroke-linejoin="round"/>
</svg>
