<svg width="24" height="24" viewBox="0 0 24 24" fill="none" xmlns="http://www.w3.org/2000/svg">
<path fill-rule="evenodd" clip-rule="evenodd" d="M7.545 19.615L11.371 15.282C11.703 14.906 12.289 14.906 12.621 15.282L16.447 19.615C16.921 20.153 16.538 21 15.821 21H8.169C7.452 21 7.069 20.153 7.545 19.615Z" stroke="#323232" stroke-width="1.5" stroke-linecap="round" stroke-linejoin="round"/>
<path d="M18.879 17.797C20.201 16.231 21 14.21 21 12C21 7.029 16.971 3 12 3C7.029 3 3 7.029 3 12C3 14.207 3.797 16.226 5.116 17.792" stroke="#323232" stroke-width="1.5" stroke-linecap="round" stroke-linejoin="round"/>
<path d="M16.859 15.51C17.574 14.522 18 13.312 18 12C18 8.686 15.314 6 12 6C8.686 6 6 8.686 6 12C6 13.309 6.424 14.517 7.136 15.503" stroke="#323232" stroke-width="1.5" stroke-linecap="round" stroke-linejoin="round"/>
<path d="M14.771 13.145C14.917 12.792 15 12.406 15 12C15 10.343 13.657 9 12 9C10.343 9 9 10.343 9 12C9 12.403 9.082 12.785 9.226 13.136" stroke="#323232" stroke-width="1.5" stroke-linecap="round" stroke-linejoin="round"/>
</svg>
