<svg width="24" height="24" viewBox="0 0 24 24" fill="none" xmlns="http://www.w3.org/2000/svg">
<path fill-rule="evenodd" clip-rule="evenodd" d="M8.33799 19.366L11.226 15.839C11.626 15.35 12.373 15.35 12.773 15.839L15.661 19.366C16.197 20.019 15.732 21 14.888 21H9.11199C8.26799 21 7.80299 20.019 8.33799 19.366V19.366Z" stroke="#323232" stroke-width="1.5" stroke-linecap="round" stroke-linejoin="round"/>
<path d="M7.98901 12.989C8.90401 11.764 10.353 10.959 12 10.959C13.647 10.959 15.096 11.763 16.011 12.989" stroke="#323232" stroke-width="1.5" stroke-linecap="round" stroke-linejoin="round"/>
<path d="M5.16501 10.165C6.81201 8.23 9.26001 7 12 7C14.74 7 17.188 8.23 18.835 10.165" stroke="#323232" stroke-width="1.5" stroke-linecap="round" stroke-linejoin="round"/>
<path d="M2.336 7.336C4.713 4.681 8.156 3 12 3C15.844 3 19.287 4.681 21.664 7.336" stroke="#323232" stroke-width="1.5" stroke-linecap="round" stroke-linejoin="round"/>
</svg>
