<svg width="24" height="24" viewBox="0 0 24 24" fill="none" xmlns="http://www.w3.org/2000/svg">
<path d="M4.67001 17.209C5.25401 18.029 5.97101 18.746 6.79101 19.33" stroke="#323232" stroke-width="1.5" stroke-linecap="round" stroke-linejoin="round"/>
<path d="M3.135 10.5C3.053 10.989 3 11.488 3 12C3 12.512 3.053 13.011 3.135 13.5" stroke="#323232" stroke-width="1.5" stroke-linecap="round" stroke-linejoin="round"/>
<path d="M4.67001 6.79101C5.25401 5.97001 5.97001 5.25401 6.79101 4.66901" stroke="#323232" stroke-width="1.5" stroke-linecap="round" stroke-linejoin="round"/>
<path d="M10.5 20.865C10.989 20.947 11.488 21 12 21C16.971 21 21 16.971 21 12C21 7.029 16.971 3 12 3C11.488 3 10.989 3.053 10.5 3.135" stroke="#323232" stroke-width="1.5" stroke-linecap="round" stroke-linejoin="round"/>
<path d="M16 10L11 15L8 12" stroke="#323232" stroke-width="1.5" stroke-linecap="round" stroke-linejoin="round"/>
</svg>
