<svg width="24" height="24" viewBox="0 0 24 24" fill="none" xmlns="http://www.w3.org/2000/svg">
<path fill-rule="evenodd" clip-rule="evenodd" d="M12.001 4.998V4.998C16.42 4.998 20.002 8.58 20.002 13V13C20.002 17.419 16.42 21.001 12.001 21.001V21.001C7.582 21.001 3.999 17.419 3.999 13V13C3.999 8.581 7.581 4.998 12.001 4.998Z" stroke="#323232" stroke-width="1.5" stroke-linecap="round" stroke-linejoin="round"/>
<path d="M12.001 13.445V8.999" stroke="#323232" stroke-width="1.5" stroke-linecap="round" stroke-linejoin="round"/>
<path d="M3.45 5.81L6.45 3.29" stroke="#323232" stroke-width="1.5" stroke-linecap="round" stroke-linejoin="round"/>
<path d="M20.56 5.82L17.56 3.3" stroke="#323232" stroke-width="1.5" stroke-linecap="round" stroke-linejoin="round"/>
<path d="M12 16.628C11.917 16.628 11.85 16.695 11.851 16.778C11.851 16.861 11.918 16.928 12.001 16.928C12.084 16.928 12.151 16.861 12.151 16.778C12.151 16.695 12.083 16.628 12 16.628" stroke="#323232" stroke-width="1.5" stroke-linecap="round" stroke-linejoin="round"/>
</svg>
