<svg width="24" height="24" viewBox="0 0 24 24" fill="none" xmlns="http://www.w3.org/2000/svg">
<path fill-rule="evenodd" clip-rule="evenodd" d="M17 21C19.209 21 21 19.209 21 17V14V7C21 4.791 19.209 3 17 3H7C4.791 3 3 4.791 3 7V17C3 19.209 4.791 21 7 21H17Z" stroke="#323232" stroke-width="1.5" stroke-linecap="round" stroke-linejoin="round"/>
<path d="M13.061 7.439C13.647 8.025 13.647 8.975 13.061 9.56C12.475 10.146 11.525 10.146 10.94 9.56C10.354 8.974 10.354 8.024 10.94 7.439C11.525 6.854 12.475 6.854 13.061 7.439" stroke="#323232" stroke-width="1.5" stroke-linecap="round" stroke-linejoin="round"/>
<path d="M12 17V10" stroke="#323232" stroke-width="1.5" stroke-linecap="round" stroke-linejoin="round"/>
<path d="M8.5 12H7C7 14.761 9.239 17 12 17C14.761 17 17 14.761 17 12H15.5" stroke="#323232" stroke-width="1.5" stroke-linecap="round" stroke-linejoin="round"/>
</svg>
