<svg width="24" height="24" viewBox="0 0 24 24" fill="none" xmlns="http://www.w3.org/2000/svg">
<path fill-rule="evenodd" clip-rule="evenodd" d="M9.333 6.667V6.667C9.333 5.194 10.527 4 12 4V4C13.473 4 14.667 5.194 14.667 6.667V6.667C14.667 8.14 13.473 9.334 12 9.334V9.334C10.527 9.333 9.333 8.139 9.333 6.667Z" stroke="#323232" stroke-width="1.5" stroke-linecap="round" stroke-linejoin="round"/>
<path fill-rule="evenodd" clip-rule="evenodd" d="M2.869 17.333V17.333C2.869 15.86 4.063 14.666 5.536 14.666V14.666C7.009 14.666 8.203 15.86 8.203 17.333V17.333C8.202 18.806 7.009 20 5.536 20V20C4.063 20 2.869 18.806 2.869 17.333Z" stroke="#323232" stroke-width="1.5" stroke-linecap="round" stroke-linejoin="round"/>
<path fill-rule="evenodd" clip-rule="evenodd" d="M15.798 17.333V17.333C15.798 15.86 16.992 14.666 18.465 14.666V14.666C19.938 14.666 21.132 15.86 21.132 17.333V17.333C21.132 18.806 19.938 20 18.465 20V20C16.991 20 15.798 18.806 15.798 17.333H15.798Z" stroke="#323232" stroke-width="1.5" stroke-linecap="round" stroke-linejoin="round"/>
<path d="M15.89 16.67H8.11" stroke="#323232" stroke-width="1.5" stroke-linecap="round" stroke-linejoin="round"/>
<path d="M13.44 8.91L17.31 14.94" stroke="#323232" stroke-width="1.5" stroke-linecap="round" stroke-linejoin="round"/>
<path d="M6.69 14.94L10.56 8.91" stroke="#323232" stroke-width="1.5" stroke-linecap="round" stroke-linejoin="round"/>
</svg>
