<svg width="24" height="24" viewBox="0 0 24 24" fill="none" xmlns="http://www.w3.org/2000/svg">
<path d="M17.21 9.5V14.5" stroke="#323232" stroke-width="1.5" stroke-linecap="round" stroke-linejoin="round"/>
<path d="M10.58 9.5V14.5" stroke="#323232" stroke-width="1.5" stroke-linecap="round" stroke-linejoin="round"/>
<path d="M10.579 9.5H12.806C13.669 9.5 14.368 10.2 14.368 11.062V11.062C14.368 11.925 13.668 12.624 12.806 12.624H10.579" stroke="#323232" stroke-width="1.5" stroke-linecap="round" stroke-linejoin="round"/>
<path d="M7.737 14.5L5.369 9.5L3 14.5" stroke="#323232" stroke-width="1.5" stroke-linecap="round" stroke-linejoin="round"/>
<path d="M19.112 6.5C18.882 6.201 18.638 5.91 18.364 5.636C14.849 2.121 9.151 2.121 5.636 5.636C5.362 5.91 5.119 6.201 4.888 6.5" stroke="#323232" stroke-width="1.5" stroke-linecap="round" stroke-linejoin="round"/>
<path d="M4.888 17.5C5.118 17.799 5.362 18.09 5.636 18.364C9.151 21.879 14.849 21.879 18.364 18.364C18.638 18.09 18.881 17.799 19.112 17.5" stroke="#323232" stroke-width="1.5" stroke-linecap="round" stroke-linejoin="round"/>
<path d="M17.211 9.5H19.438C20.3 9.5 21 10.2 21 11.062V11.062C21 11.925 20.3 12.624 19.438 12.624H17.211" stroke="#323232" stroke-width="1.5" stroke-linecap="round" stroke-linejoin="round"/>
<path d="M3.474 13.5H7.263" stroke="#323232" stroke-width="1.5" stroke-linecap="round" stroke-linejoin="round"/>
</svg>
