<svg width="24" height="24" viewBox="0 0 24 24" fill="none" xmlns="http://www.w3.org/2000/svg">
<path d="M3 12.253C3 14.738 7.029 16.753 12 16.753" stroke="#323232" stroke-width="1.5" stroke-linecap="round" stroke-linejoin="round"/>
<path d="M21 12.253C21 13.813 19.411 15.187 17 15.994C19.411 15.187 21 13.813 21 12.253" stroke="#323232" stroke-width="1.5" stroke-linecap="round" stroke-linejoin="round"/>
<path d="M13 16.753H12C7.029 16.753 3 14.738 3 12.253" stroke="#323232" stroke-width="1.5" stroke-linecap="round" stroke-linejoin="round"/>
<path d="M10.754 18.998L13 16.753L10.754 14.507" stroke="#323232" stroke-width="1.5" stroke-linecap="round" stroke-linejoin="round"/>
<path d="M21 12.253C21 10.295 18.493 8.635 15 8.017" stroke="#323232" stroke-width="1.5" stroke-linecap="round" stroke-linejoin="round"/>
<path d="M9 8.016C5.507 8.634 3 10.294 3 12.252" stroke="#323232" stroke-width="1.5" stroke-linecap="round" stroke-linejoin="round"/>
<path d="M11.845 4.995C11.845 5.085 11.905 5.145 11.995 5.145C12.085 5.145 12.145 5.085 12.145 4.995C12.145 4.905 12.085 4.845 11.995 4.845C11.905 4.845 11.845 4.905 11.845 4.995" stroke="#323232" stroke-width="1.5" stroke-linecap="round" stroke-linejoin="round"/>
<path d="M11.845 7.995C11.845 8.085 11.905 8.145 11.995 8.145C12.085 8.145 12.145 8.085 12.145 7.995C12.145 7.905 12.085 7.845 11.995 7.845C11.905 7.845 11.845 7.905 11.845 7.995" stroke="#323232" stroke-width="1.5" stroke-linecap="round" stroke-linejoin="round"/>
<path d="M11.84 10.995C11.84 11.085 11.9 11.145 11.99 11.145C12.08 11.145 12.14 11.085 12.14 10.995C12.14 10.905 12.08 10.845 11.99 10.845C11.9 10.845 11.84 10.905 11.84 10.995" stroke="#323232" stroke-width="1.5" stroke-linecap="round" stroke-linejoin="round"/>
</svg>
