<svg width="24" height="24" viewBox="0 0 24 24" fill="none" xmlns="http://www.w3.org/2000/svg">
<path d="M11.293 12.707L14.475 9.525C15.06 8.94 16.011 8.94 16.596 9.525V9.525C17.181 10.11 17.181 11.061 16.596 11.646L12.707 15.535C11.535 16.707 9.636 16.707 8.464 15.535V15.535C7.292 14.363 7.292 12.464 8.464 11.292L12 7.757" stroke="#323232" stroke-width="1.5" stroke-linecap="round" stroke-linejoin="round"/>
<path fill-rule="evenodd" clip-rule="evenodd" d="M18 21H6C4.343 21 3 19.657 3 18V6C3 4.343 4.343 3 6 3H18C19.657 3 21 4.343 21 6V18C21 19.657 19.657 21 18 21Z" stroke="#323232" stroke-width="1.5" stroke-linecap="round" stroke-linejoin="round"/>
</svg>
