<svg width="24" height="24" viewBox="0 0 24 24" fill="none" xmlns="http://www.w3.org/2000/svg">
<path fill-rule="evenodd" clip-rule="evenodd" d="M14.029 4.139L21.688 17.544C22.578 19.102 21.453 21.041 19.659 21.041H4.341C2.546 21.041 1.421 19.102 2.312 17.544L9.971 4.139C10.868 2.568 13.132 2.568 14.029 4.139Z" stroke="#323232" stroke-width="1.5" stroke-linecap="round" stroke-linejoin="round"/>
<path fill-rule="evenodd" clip-rule="evenodd" d="M11.444 12.802C10.897 13.349 9.976 13.199 9.63 12.508L9.222 11.69C8.511 12.401 8.111 13.366 8.111 14.373V14.468C8.111 16.616 9.852 18.357 12 18.357C14.148 18.357 15.889 16.616 15.889 14.468C15.889 13.414 15.412 12.417 14.591 11.756L13.988 11.27C13.378 10.778 12.951 10.095 12.777 9.33099L12.555 8.35699C11.514 9.39799 11.062 10.891 11.351 12.335L11.444 12.802Z" stroke="#323232" stroke-width="1.5" stroke-linecap="round" stroke-linejoin="round"/>
</svg>
